PathFileType	4	(X/Y/Z)	s09c0302.trc
DataRate	CameraRate	NumFrames	NumMarkers	Units	OrigDataRate	OrigDataStartFrame	OrigNumFrames
200	200	6	50	mm	200	500	2000
Frame#	Time	racr			lacr			c7			jug			rlel			rdr			llel			ldr			s2			lic			ric			lasi			rasi			rpsi			lpsi			rgt			lgt			rth1			rth2			rth3			rth4			rlfc			rmfc			rsh1			rsh2			rsh3			rsh4			rlmal			rmmal			rcal			rtoe			rmt5			lth1			lth2			lth4			lth3			llfc			lmfc			llmal			lmmal			lcal			lmt5			lsh1			lsh2			lsh3			lsh4			ltoe			SBIKE			LBIKE			RBIKE			
		X1	Y1	Z1	X2	Y2	Z2	X3	Y3	Z3	X4	Y4	Z4	X5	Y5	Z5	X6	Y6	Z6	X7	Y7	Z7	X8	Y8	Z8	X9	Y9	Z9	X10	Y10	Z10	X11	Y11	Z11	X12	Y12	Z12	X13	Y13	Z13	X14	Y14	Z14	X15	Y15	Z15	X16	Y16	Z16	X17	Y17	Z17	X18	Y18	Z18	X19	Y19	Z19	X20	Y20	Z20	X21	Y21	Z21	X22	Y22	Z22	X23	Y23	Z23	X24	Y24	Z24	X25	Y25	Z25	X26	Y26	Z26	X27	Y27	Z27	X28	Y28	Z28	X29	Y29	Z29	X30	Y30	Z30	X31	Y31	Z31	X32	Y32	Z32	X33	Y33	Z33	X34	Y34	Z34	X35	Y35	Z35	X36	Y36	Z36	X37	Y37	Z37	X38	Y38	Z38	X39	Y39	Z39	X40	Y40	Z40	X41	Y41	Z41	X42	Y42	Z42	X43	Y43	Z43	X44	Y44	Z44	X45	Y45	Z45	X46	Y46	Z46	X47	Y47	Z47	X48	Y48	Z48	X49	Y49	Z49	X50	Y50	Z50	
500	2.5000	641.066949	1355.268118	-140.787274	710.149862	1225.449597	-483.849263	670.916756	1370.712788	-335.365083	678.009785	1246.522760	-290.420383	579.468934	1098.633644	-72.921203	718.976769	880.970032	-67.119473	521.588023	1024.180426	-564.385067	692.203154	881.330303	-459.315645	201.576894	1156.007812	-319.928736	355.336787	1097.799441	-440.377011	327.566714	1179.913841	-158.701435	385.320792	1045.053702	-397.206349	360.759088	1117.253336	-160.298822	225.941027	1199.100576	-264.270877	238.872465	1177.490177	-372.253695	285.856965	1053.496390	-87.031206	298.275837	976.943272	-457.789059	385.831713	952.299125	-70.708685	459.704885	904.501316	-67.531779	494.038051	823.008388	-61.868751	483.785499	921.116555	-90.095638	523.631939	724.588352	-77.837061	509.390725	703.069754	-175.437748	424.241885	692.576648	-53.209339	358.548046	632.644793	-69.469513	272.992935	615.213215	-72.828448	374.630156	609.941631	-96.287285	182.817443	565.860328	-77.559707	195.000383	569.785929	-152.927330	109.043959	596.945821	-115.777527	271.267913	387.809654	-129.654637	209.102510	439.486138	-62.408927	352.095365	857.818362	-447.597652	405.730815	793.434863	-432.635461	438.361679	808.258239	-421.623846	419.828863	704.506235	-418.560784	443.008084	613.644766	-398.986523	445.814868	602.925716	-304.861226	303.523650	272.118132	-410.993266	318.486721	281.705007	-334.750674	229.903320	236.528750	-373.833612	398.174744	187.655815	-433.065997	400.419692	521.123069	-423.093673	391.234676	435.584979	-413.479738	339.589700	363.479159	-413.197793	414.885339	429.118938	-381.402177	491.101042	205.615996	-364.947044	-64.482073	851.309355	-242.692380	21.108102	83.471112	-442.410041	21.074119	83.963862	-44.171048	
501	2.5050	634.161955	1355.587672	-134.429570	712.373658	1228.684984	-479.070726	667.600134	1372.488037	-330.158134	676.331724	1248.251954	-285.427788	573.418388	1096.812231	-72.972105	717.992415	882.251707	-67.722377	528.335705	1027.507722	-568.235842	693.277480	881.105984	-460.249533	200.956763	1154.225555	-324.855139	357.532618	1095.609983	-441.381630	322.634238	1181.191336	-160.143469	386.725862	1043.577192	-397.034282	357.784187	1118.353639	-161.167179	224.522745	1197.645744	-269.084025	239.448943	1175.398335	-376.635057	282.431048	1054.913236	-89.047056	300.685792	975.235794	-459.100807	383.853293	955.002482	-70.713542	458.744605	909.251113	-66.612367	495.041823	828.459667	-60.771553	482.813052	926.213164	-89.096679	527.518074	731.230334	-76.577437	514.294881	708.932649	-174.443321	427.987819	698.994067	-52.657927	362.591250	638.842921	-68.964691	277.132356	621.121946	-72.887429	379.067790	616.030118	-95.340299	187.151667	571.222596	-78.251871	199.653928	575.276202	-153.312715	113.783581	601.724951	-116.247316	277.935543	394.293268	-129.741604	215.088627	445.348340	-62.739570	351.091191	855.519423	-447.693590	403.213983	790.088171	-432.114063	435.831405	804.092095	-420.648708	415.462532	700.964687	-417.726252	436.874248	609.754535	-397.972128	438.187682	599.066513	-303.787896	298.645749	267.993075	-412.006921	313.237274	277.358740	-335.771994	224.661981	233.354715	-375.724085	393.036408	182.246338	-433.031615	394.614776	517.305246	-422.797966	385.745703	431.689729	-413.461656	334.431390	359.381000	-413.855643	409.118340	425.337876	-381.224639	485.414479	199.164799	-363.891949	-64.553948	851.290441	-242.790083	21.105853	83.463721	-442.424886	21.070244	83.988576	-44.179324	
502	2.5100	627.223316	1355.794003	-128.048136	714.477009	1232.569254	-474.259636	664.564102	1374.166572	-325.065272	674.677084	1249.696260	-281.077522	567.376722	1094.856795	-73.068864	717.012039	883.679663	-68.057582	536.248014	1031.416404	-572.401923	694.545487	880.843417	-460.924048	200.511190	1152.722864	-329.420689	359.830800	1093.758667	-442.283583	317.894266	1182.854703	-161.632585	387.963310	1042.275658	-395.688825	354.984068	1119.345487	-161.858233	222.973199	1196.198220	-274.004147	240.235942	1173.526298	-380.582676	278.536163	1056.190631	-91.482829	303.117175	973.817105	-460.374578	381.964440	957.958399	-71.096239	457.635871	913.893081	-66.286264	496.099314	833.986361	-59.734796	481.642736	931.263807	-88.727161	531.233421	737.967735	-75.585199	518.696013	716.510540	-172.683736	431.777655	705.375290	-52.182747	366.713283	644.917507	-68.462745	281.325572	626.825325	-72.933478	383.439093	621.832865	-94.507743	191.664450	576.274282	-78.682521	204.745140	581.283401	-154.316604	117.901677	606.158584	-116.432001	285.837254	401.734572	-128.567337	221.248054	451.009858	-63.070262	350.063278	853.591666	-447.652568	400.607895	787.108521	-431.652575	433.300699	800.479388	-419.811088	410.605795	697.886061	-417.480962	430.791624	606.294792	-397.155649	430.426164	595.484646	-302.867794	293.645545	264.244351	-413.087336	307.696547	273.418340	-336.950524	219.476047	230.323412	-377.613772	387.683163	177.165278	-432.989715	388.734267	513.921362	-422.787117	380.203497	428.199262	-413.620101	329.280405	355.625230	-414.659189	403.204723	421.920245	-381.123732	479.593004	193.058802	-362.942792	-64.642047	851.301322	-242.833287	21.092946	83.429830	-442.409797	21.054628	83.983240	-44.180431	
503	2.5150	620.334195	1355.983101	-122.076000	716.453168	1236.939813	-469.264477	661.541717	1376.011690	-319.839780	673.030770	1251.266080	-276.766771	561.980147	1093.195095	-72.900642	715.990563	885.222370	-68.165226	544.129202	1035.199216	-575.721584	695.921281	880.545185	-461.406299	201.009862	1151.416753	-334.017028	362.127902	1092.262839	-443.026550	315.615011	1183.365303	-164.499326	389.325630	1041.042923	-395.666946	352.355003	1120.356007	-162.601271	222.590986	1195.383427	-278.105388	241.656126	1172.106994	-384.139876	274.977366	1057.291463	-93.487894	305.476304	972.737597	-461.569692	380.143997	960.833469	-71.844519	456.544765	918.463769	-66.608485	497.131217	839.837784	-58.914488	480.444167	936.207610	-88.795659	534.906538	744.484044	-74.602093	524.363056	721.927076	-173.849073	435.661961	711.338177	-51.783000	370.783015	651.054023	-67.969246	285.387432	632.548677	-72.823410	387.784012	627.398218	-93.887371	196.936225	580.962404	-78.050830	209.055775	585.511458	-154.079063	122.156391	610.062446	-116.660558	291.493260	406.603493	-129.986445	227.701558	456.180645	-63.153514	348.860641	851.923983	-447.786028	397.896507	784.466527	-431.312308	430.814418	797.291772	-419.056200	406.145222	695.215347	-417.405174	424.608143	603.203293	-396.581892	422.570383	592.242196	-302.148347	288.413711	260.684123	-413.783774	302.283158	269.936012	-337.827415	214.045495	227.647484	-378.426199	381.570815	172.139044	-432.979076	382.886620	510.831235	-422.865555	374.663870	425.030622	-413.946015	323.986999	352.347652	-415.469728	397.344835	418.978879	-381.194728	473.531037	187.280504	-362.877433	-64.770572	851.277257	-242.915434	21.087828	83.394822	-442.417681	21.066160	83.989853	-44.168827	
504	2.5200	613.595505	1356.142563	-116.644744	718.286865	1241.716138	-464.166850	658.343195	1377.874439	-314.342073	671.503524	1252.852044	-272.343007	556.451933	1091.597127	-73.229472	715.090107	886.767163	-67.967361	552.248007	1038.832036	-578.576860	697.447925	880.179703	-461.557935	201.316581	1150.418073	-338.188669	364.340864	1091.124664	-443.524805	312.806888	1184.042688	-166.748706	390.482811	1040.429780	-395.409463	349.977740	1121.248097	-163.253176	220.853345	1194.430811	-282.359322	244.581802	1169.878180	-385.315778	271.606101	1058.538299	-95.590210	307.959584	971.831756	-462.203899	378.475985	963.662205	-72.872191	455.869072	923.138388	-67.135985	498.297644	845.650298	-58.432527	479.442480	941.139863	-89.170994	538.498729	750.863196	-73.723892	527.745877	726.845351	-171.792832	439.396632	717.148881	-51.417474	374.943609	656.588111	-67.731143	289.669356	637.619956	-72.952886	392.206340	632.801526	-93.340997	201.231759	585.229164	-78.963589	213.644570	589.708892	-154.210411	126.579432	613.741745	-117.246571	298.887766	412.791439	-130.279777	233.968256	461.202343	-63.391603	347.579678	850.628631	-447.987676	395.130287	782.124127	-431.033261	428.222643	794.387096	-418.309179	401.550517	692.620388	-417.174626	418.523375	600.558591	-396.326268	414.521022	589.397333	-301.702790	282.639619	257.733917	-414.064136	296.793156	266.682835	-338.254898	208.378683	225.800020	-378.917734	375.492111	167.913256	-432.848903	377.010763	508.099819	-423.066863	368.944013	422.369285	-414.092340	318.459251	349.399181	-415.952543	391.287788	416.338539	-381.052562	467.312555	181.460570	-362.301939	-64.925559	851.243129	-242.969360	21.094303	83.377970	-442.426791	21.086777	83.995298	-44.169621	
505	2.5250	607.355728	1356.343428	-111.806388	720.021064	1246.841869	-459.052347	655.578818	1379.637256	-308.374941	670.065314	1254.183913	-267.896595	551.315703	1090.237018	-73.681097	714.358810	887.864305	-67.626757	560.766389	1042.776342	-580.544940	698.948637	879.757279	-461.532935	201.756062	1149.892923	-341.900988	366.398710	1090.203740	-443.936438	310.352992	1184.605389	-168.822547	391.482992	1040.229317	-395.218545	347.777542	1122.131640	-163.956155	220.192226	1193.827359	-286.043743	245.935435	1168.958607	-388.933014	268.574592	1059.709046	-97.557784	310.168016	971.319873	-463.826060	376.958053	966.607383	-74.131100	455.623732	927.824806	-67.655723	499.473637	851.483120	-58.258164	478.441490	946.234486	-90.015911	541.895220	757.136865	-73.002093	531.932645	732.220274	-171.347941	443.093519	722.902108	-51.094733	379.020199	661.641724	-67.746533	293.987104	642.260290	-73.172698	396.539856	637.983583	-93.069608	205.780560	589.043370	-79.616829	218.311735	593.663005	-154.581856	130.820183	616.681811	-117.947349	306.699490	418.617752	-130.259416	240.460700	466.025646	-63.617543	346.283848	849.484561	-448.324803	392.387783	780.121044	-431.046224	425.516449	791.733512	-417.740547	397.023949	690.483207	-417.264334	412.440861	598.331167	-396.304020	406.515061	586.982043	-301.505260	276.759787	255.444596	-414.207990	291.239345	264.039774	-338.591256	202.792767	224.331307	-379.685836	369.196836	163.836563	-432.737084	371.115244	505.588151	-423.208813	363.222101	419.870452	-414.127215	312.759852	346.921970	-416.306488	385.206225	413.969523	-380.989044	460.861639	176.155748	-361.517246	-65.036780	851.214840	-242.981630	21.086908	83.340230	-442.419501	21.082563	84.017860	-44.159562	
